<svg viewBox="0 0 101 94" fill="none" xmlns="http://www.w3.org/2000/svg">
	<path d="M13.2522 9.448H13.2322C12.1426 9.448 11.2595 10.3311 11.2595 11.4207C11.2595 12.5102 12.1426 13.3933 13.2322 13.3933H13.2522C14.3418 13.3933 15.2249 12.5102 15.2249 11.4207C15.2249 10.3311 14.3418 9.448 13.2522 9.448Z" fill="currentColor" />
	<path d="M23.0231 9.448H23.0031C21.9135 9.448 21.0304 10.3311 21.0304 11.4207C21.0304 12.5102 21.9135 13.3933 23.0031 13.3933H23.0231C24.1127 13.3933 24.9957 12.5102 24.9957 11.4207C24.9957 10.3311 24.1127 9.448 23.0231 9.448Z" fill="currentColor" />
	<path d="M32.7938 9.448H32.7738C31.6842 9.448 30.8011 10.3311 30.8011 11.4207C30.8011 12.5102 31.6842 13.3933 32.7738 13.3933H32.7938C33.8834 13.3933 34.7665 12.5102 34.7665 11.4207C34.7665 10.3311 33.8834 9.448 32.7938 9.448Z" fill="currentColor" />
	<path d="M87.6468 9.448H49.5884C48.4988 9.448 47.6157 10.3311 47.6157 11.4207C47.6157 12.5095 48.4988 13.3933 49.5884 13.3933H87.6468C88.7364 13.3933 89.6194 12.5095 89.6194 11.4207C89.6194 10.3311 88.7364 9.448 87.6468 9.448Z" fill="currentColor" />
	<path d="M51.8594 89.1519C51.3408 89.1519 50.8337 89.363 50.4646 89.7298C50.0979 90.0966 49.8867 90.6059 49.8867 91.1245C49.8867 91.6431 50.0979 92.1525 50.4646 92.5192C50.8337 92.886 51.3408 93.0972 51.8594 93.0972C52.378 93.0972 52.8873 92.886 53.2541 92.5192C53.6224 92.1525 53.832 91.6431 53.832 91.1245C53.832 90.6059 53.6224 90.0966 53.2541 89.7298C52.8873 89.363 52.378 89.1519 51.8594 89.1519Z" fill="currentColor" />
	<path d="M94.733 0H6.26704C2.81181 0 0 2.81181 0 6.26704V86.83C0 90.286 2.81181 93.097 6.26704 93.097H43.5957C44.6853 93.097 45.5684 92.214 45.5684 91.1244C45.5684 90.0348 44.6853 89.1517 43.5957 89.1517H6.26704C4.98712 89.1517 3.94531 88.1107 3.94531 86.83V22.8412H97.0547V86.83C97.0547 88.1099 96.0129 89.1517 94.733 89.1517H59.9033C58.8137 89.1517 57.9306 90.0348 57.9306 91.1244C57.9306 92.214 58.8137 93.097 59.9033 93.097H94.733C98.1882 93.097 101 90.286 101 86.83V6.26704C101 2.81181 98.1882 0 94.733 0ZM3.94531 18.8951V6.26704C3.94531 4.98712 4.98712 3.94531 6.26704 3.94531H94.733C96.0129 3.94531 97.0547 4.98712 97.0547 6.26704V18.8959H3.94531V18.8951Z" fill="currentColor" />
</svg>
