<svg viewBox="0 0 48 54" fill="none" xmlns="http://www.w3.org/2000/svg">
	<path d="M34.5345 50.3516C34.5345 47.4277 34.5345 44.5599 34.5345 41.636C34.5345 40.174 34.4771 38.7683 33.7877 37.4187C33.443 36.6315 32.8685 35.9568 32.409 35.1695C33.6728 34.9446 34.9941 34.7759 36.3154 34.4385C39.8198 33.5389 42.922 32.0207 45.0476 29.0405C46.5987 26.8475 47.2881 24.3734 47.6328 21.7868C47.8626 19.8188 47.92 17.7945 47.5753 15.8264C47.1732 13.6335 46.1966 11.6654 44.7029 10.0347C44.4157 9.75359 44.4157 9.47244 44.5306 9.13506C45.5072 6.37979 45.1625 3.68075 44.1284 1.03794C44.071 0.869248 43.7837 0.700558 43.5539 0.700558C42.3475 0.531868 41.256 0.869248 40.1645 1.37532C38.441 2.16254 36.775 3.11845 35.0516 3.90567C34.7643 4.07436 34.3047 4.13059 34.0175 4.07436C28.6748 2.78107 23.3321 2.78107 17.9894 4.07436C17.7022 4.13059 17.2426 4.07436 16.9553 3.90567C14.7149 2.49992 12.4169 1.43155 9.94665 0.756788C9.8892 0.756788 9.8892 0.756788 9.83175 0.700558C8.2232 0.363178 7.93596 0.531868 7.47637 2.10631C6.78699 4.46797 6.61464 6.88586 7.47637 9.24752C7.53382 9.41621 7.47637 9.75359 7.36147 9.92228C4.43161 13.1274 3.79968 16.8948 4.20181 20.9996C4.43161 23.4175 5.00609 25.6667 6.09761 27.8596C7.64871 30.8961 10.2339 32.7516 13.3935 33.82C15.2893 34.4385 17.3 34.7197 19.2533 35.1695C19.3682 35.1695 19.4831 35.2258 19.4831 35.2258C18.966 36.1254 18.449 36.9689 17.9894 37.8686C17.8171 38.1497 17.7022 38.5433 17.7022 38.8807C17.7022 39.6117 17.3 39.8929 16.6681 40.0615C14.4851 40.6238 12.3595 41.0175 10.2913 39.7804C9.19982 39.1056 8.39554 38.206 7.76361 37.1376C6.78699 35.5069 5.40823 34.2699 3.51243 33.7638C2.82305 33.5951 2.01878 33.5951 1.27195 33.6513C0.812361 33.6513 0.640016 34.0449 0.984706 34.4385C1.27195 34.7759 1.61664 35.2258 2.01878 35.4507C3.85712 36.4628 4.89119 38.1497 5.69547 39.9491C6.15506 40.9612 6.61464 42.0296 7.53382 42.8168C8.97003 44.0539 10.6935 44.5599 12.5893 44.6162C14.1978 44.6724 15.8064 44.6162 17.5298 44.6162C17.5298 45.5721 17.5298 46.6405 17.5298 47.7651C17.5298 48.6085 17.5873 49.452 17.5873 50.2954C17.5873 51.7012 16.7256 52.4321 15.4617 52.2072C18.7937 53.2756 22.3555 53.8379 26.0896 53.8379C29.8812 53.8379 33.5005 53.2194 36.9474 52.0948C35.4537 52.5446 34.5345 51.8136 34.5345 50.3516Z" fill="currentColor" />
</svg>
