<svg viewBox="0 0 54 54" fill="none" xmlns="http://www.w3.org/2000/svg">
	<path d="M41.7637 16.0264C43.5492 16.0264 44.9967 14.579 44.9967 12.7935C44.9967 11.008 43.5492 9.56055 41.7637 9.56055C39.9782 9.56055 38.5308 11.008 38.5308 12.7935C38.5308 14.579 39.9782 16.0264 41.7637 16.0264Z" fill="currentColor" />
	<path d="M27.1959 13.4443C19.6261 13.4443 13.4756 19.5948 13.4756 27.1647C13.4756 34.7345 19.6261 40.885 27.1959 40.885C34.7657 40.885 40.9162 34.7345 40.9162 27.1647C40.9162 19.5948 34.7657 13.4443 27.1959 13.4443ZM27.1959 37.0803C21.7157 37.0803 17.2802 32.6449 17.2802 27.1647C17.2802 21.6844 21.7157 17.249 27.1959 17.249C32.6761 17.249 37.1116 21.6844 37.1116 27.1647C37.1116 32.6449 32.6761 37.0803 27.1959 37.0803Z" fill="currentColor" />
	<path d="M53.6903 26.2775C53.6706 21.5858 53.4143 17.2292 53.0201 13.2077C52.7638 10.5859 51.0093 2.58235 41.1134 1.301C37.6636 0.8476 32.203 0.867314 27.393 0.867314C22.4056 0.867314 17.6745 1.10387 13.2193 1.301C10.42 1.43899 7.24624 2.89776 5.0778 5.04649C1.66743 8.45686 1.31259 12.3995 1.31259 13.188C0.997184 18.0769 0.878906 22.7489 0.878906 27.1449C0.878906 32.0534 1.11546 36.7057 1.31259 41.1018C1.45059 44.0982 2.81079 47.0354 4.88067 49.2433C7.73907 52.2988 12.4111 52.9888 13.1996 52.9888C17.9307 53.2845 22.9576 53.4619 28.2604 53.4224C32.755 53.4027 37.1313 53.8956 41.1134 52.9888C52.5075 50.3866 53.0201 41.8903 53.0201 41.082C53.4538 36.6072 53.7297 31.6395 53.6903 26.2775ZM49.4914 39.1896C49.4914 39.8796 48.9197 48.3168 39.2406 49.4404C35.7514 49.8544 32.0453 49.7952 28.1618 49.815C23.5884 49.8347 19.2515 49.6967 15.1709 49.4404C14.4809 49.4404 10.8537 49.3813 7.91648 46.444C6.06345 44.591 4.92009 42.0283 4.92009 39.1896C4.68354 35.4047 4.54554 31.3832 4.54554 27.1646C4.54554 23.3797 4.66382 19.3582 4.92009 15.1396C4.92009 14.4496 4.97923 10.8224 7.91648 7.88518C9.76952 6.03215 12.3322 4.88879 15.1709 4.88879C19.015 4.65223 23.0956 4.49453 27.393 4.51424C31.5525 4.51424 35.4951 4.65223 39.2406 4.88879C48.9197 5.83502 49.2943 12.8923 49.4914 15.1396C49.8265 18.6091 50.0434 22.3743 50.0631 26.4155C50.0828 31.0284 49.866 35.3061 49.4914 39.1896Z" fill="currentColor" />
</svg>
