<svg viewBox="0 0 56 47" fill="none" xmlns="http://www.w3.org/2000/svg">
	<path d="M0 41.0212C6.22601 41.5797 11.7572 40.0811 16.7435 36.3074C11.5256 35.8578 8.03796 33.2557 6.08977 28.3648C7.8336 28.5691 9.46844 28.61 11.185 28.1196C8.47391 27.4793 6.30775 26.1578 4.63204 24.0733C2.95633 21.9753 2.11167 19.5912 2.12529 16.7983C3.71926 17.6021 5.32685 18.1198 7.23416 18.1743C4.74103 16.3624 3.14706 14.1008 2.50675 11.2262C1.86644 8.35164 2.27515 5.61329 3.74651 2.9703C9.93165 10.2317 17.7244 14.2371 27.2473 14.891C27.1792 14.1417 27.0838 13.4741 27.043 12.793C26.607 5.61329 33.2417 -0.258509 40.3396 1.02211C42.6693 1.44445 44.6992 2.43898 46.3885 4.10106C46.6746 4.38716 46.9199 4.42803 47.3013 4.33266C49.4539 3.82859 51.4974 3.07929 53.4184 2.00302C53.5682 1.92128 53.7317 1.83953 54.0042 1.7033C53.1186 4.37353 51.511 6.33534 49.2768 7.83394C49.2904 7.88844 49.3176 7.92931 49.3313 7.9838C50.353 7.76583 51.4021 7.58872 52.4102 7.31625C53.4184 7.04377 54.3993 6.66231 55.5028 6.28085C55.0259 6.90754 54.6717 7.5206 54.1949 7.99743C52.9143 9.29168 51.5792 10.5451 50.244 11.7984C49.9716 12.0437 49.8626 12.2616 49.8762 12.6295C49.9579 22.4385 46.4975 30.8034 39.4677 37.6289C35.04 41.9203 29.6859 44.4952 23.6234 45.5715C17.6699 46.6341 11.8253 46.1982 6.13065 44.1001C4.07347 43.3372 2.11167 42.3699 0.245226 41.2119C0.190731 41.1847 0.14986 41.1438 0 41.0212Z" fill="currentColor" />
</svg>
