<svg fill="none" viewBox="0 0 64 65">
	<circle class="cls-b" cx="31.963" cy="32.065" r="31.963" fill="currentColor" />
	<path class="cls-p" fill="currentColor" d="M10.959 48.035c5.022.45 9.484-.759 13.506-3.803-4.21-.363-7.023-2.462-8.594-6.407 1.407.165 2.725.198 4.11-.198-2.187-.516-3.934-1.582-5.286-3.264-1.352-1.692-2.033-3.615-2.022-5.868 1.286.648 2.583 1.066 4.121 1.11-2.011-1.462-3.297-3.286-3.813-5.605-.517-2.319-.187-4.528 1-6.66 4.99 5.858 11.275 9.089 18.957 9.616-.055-.604-.132-1.143-.165-1.692-.352-5.792 5-10.528 10.726-9.495 1.88.34 3.517 1.143 4.88 2.483.23.231.428.264.736.187 1.736-.406 3.385-1.01 4.934-1.879.121-.066.253-.132.473-.242-.715 2.154-2.011 3.737-3.814 4.946.011.044.033.076.044.12.825-.175 1.67-.318 2.484-.538.813-.22 1.605-.527 2.495-.835-.385.505-.67 1-1.055 1.384-1.033 1.044-2.11 2.056-3.187 3.067-.22.197-.308.373-.297.67.066 7.913-2.725 14.66-8.396 20.166-3.572 3.462-7.89 5.539-12.781 6.407-4.803.857-9.517.506-14.111-1.187a26.408 26.408 0 01-4.748-2.33c-.043-.022-.077-.055-.197-.154z" />
</svg>
