<svg class="petals" viewBox="0 0 146 144">
	<path d="M84.4786 114.849C88.8586 114.061 93.3702 112.765 96.1446 109.307C101.476 102.585 95.8767 91.9482 87.7817 89.0178C72.8037 83.6376 35.3437 94.4469 24.9279 105.323C43.1582 113.466 64.26 118.26 84.4786 114.849Z" fill="currentColor" />
	<path d="M111.969 68.1744C117.505 65.1805 122.892 61.1459 125.285 55.292C127.677 49.4381 126.153 41.6102 120.419 38.9151C115.292 36.4603 109.064 38.8993 103.866 41.3959C82.6615 51.3594 31.9632 68.1385 21.8346 90.4904C50.9053 83.8576 85.6686 82.4985 111.969 68.1744Z" fill="currentColor" />
	<path d="M64.6995 43.9541C67.7538 41.0278 70.6253 37.6784 71.0614 33.5733C71.7033 29.4798 68.9778 24.6818 64.8727 24.2457C62.5115 24.0104 60.2755 25.2273 58.2453 26.4558C42.2951 36.6099 30.5213 55.1533 24.2883 72.4581C37.0654 61.8168 52.7112 55.2589 64.6995 43.9541Z" fill="currentColor" />
</svg>
