<svg viewBox="0 0 1205 8">
	<path fill="none" d="M0.77002 4.00801C3.09806 2.09666 6.06137 1.04626 9.12552 1.04626C12.1897 1.04626 15.153 2.09666 17.481 4.00801C19.8091 5.91936 22.7724 6.96976 25.8365 6.96976C28.9007 6.96976 31.864 5.91936 34.192 4.00801C36.5201 2.09666 39.4834 1.04626 42.5475 1.04626C45.6117 1.04626 48.575 2.09666 50.903 4.00801C53.2311 5.91936 56.1944 6.96976 59.2585 6.96976C62.3227 6.96976 65.286 5.91936 67.614 4.00801C69.9421 2.09666 72.9054 1.04626 75.9695 1.04626C79.0337 1.04626 81.997 2.09666 84.325 4.00801C86.653 5.91936 89.6164 6.96976 92.6805 6.96976C95.7447 6.96976 98.708 5.91936 101.036 4.00801C103.364 2.09666 106.327 1.04626 109.392 1.04626C112.456 1.04626 115.419 2.09666 117.747 4.00801C120.075 5.91936 123.038 6.96976 126.103 6.96976C129.167 6.96976 132.13 5.91936 134.458 4.00801C136.788 2.09972 139.75 1.05132 142.814 1.05132C145.877 1.05132 148.839 2.09972 151.169 4.00801C153.497 5.91936 156.46 6.96976 159.524 6.96976C162.589 6.96976 165.552 5.91936 167.88 4.00801C170.208 2.09666 173.171 1.04626 176.235 1.04626C179.3 1.04626 182.263 2.09666 184.591 4.00801C186.919 5.91936 189.882 6.96976 192.946 6.96976C196.011 6.96976 198.974 5.91936 201.302 4.00801C203.63 2.09666 206.593 1.04626 209.657 1.04626C212.722 1.04626 215.685 2.09666 218.013 4.00801C220.341 5.91936 223.304 6.96976 226.368 6.96976C229.433 6.96976 232.396 5.91936 234.724 4.00801C237.052 2.09666 240.015 1.04626 243.079 1.04626C246.144 1.04626 249.107 2.09666 251.435 4.00801C253.763 5.91936 256.726 6.96976 259.79 6.96976C262.855 6.96976 265.818 5.91936 268.146 4.00801C270.474 2.09666 273.437 1.04626 276.501 1.04626C279.566 1.04626 282.529 2.09666 284.857 4.00801C287.185 5.91936 290.148 6.96976 293.212 6.96976C296.277 6.96976 299.24 5.91936 301.568 4.00801C303.896 2.09666 306.859 1.04626 309.923 1.04626C312.988 1.04626 315.951 2.09666 318.279 4.00801C320.607 5.91936 323.57 6.96976 326.634 6.96976C329.699 6.96976 332.662 5.91936 334.99 4.00801C337.318 2.09666 340.281 1.04626 343.345 1.04626C346.41 1.04626 349.373 2.09666 351.701 4.00801C354.029 5.91936 356.992 6.96976 360.056 6.96976C363.121 6.96976 366.084 5.91936 368.412 4.00801C370.74 2.09666 373.703 1.04626 376.767 1.04626C379.832 1.04626 382.795 2.09666 385.123 4.00801C387.451 5.91936 390.414 6.96976 393.478 6.96976C396.543 6.96976 399.506 5.91936 401.834 4.00801C404.164 2.09972 407.126 1.05132 410.189 1.05132C413.253 1.05132 416.215 2.09972 418.545 4.00801C420.873 5.91936 423.836 6.96976 426.9 6.96976C429.965 6.96976 432.928 5.91936 435.256 4.00801C437.584 2.09666 440.547 1.04626 443.611 1.04626C446.676 1.04626 449.639 2.09666 451.967 4.00801C454.295 5.91936 457.258 6.96976 460.322 6.96976C463.387 6.96976 466.35 5.91936 468.678 4.00801C471.006 2.09666 473.969 1.04626 477.033 1.04626C480.098 1.04626 483.061 2.09666 485.389 4.00801C487.717 5.91936 490.68 6.96976 493.744 6.96976C496.809 6.96976 499.772 5.91936 502.1 4.00801C504.428 2.09666 507.391 1.04626 510.455 1.04626C513.52 1.04626 516.483 2.09666 518.811 4.00801C521.139 5.91936 524.102 6.96976 527.166 6.96976C530.231 6.96976 533.194 5.91936 535.522 4.00801C537.85 2.09666 540.813 1.04626 543.877 1.04626C546.942 1.04626 549.905 2.09666 552.233 4.00801C554.561 5.91936 557.524 6.96976 560.588 6.96976C563.653 6.96976 566.616 5.91936 568.944 4.00801C571.272 2.09666 574.235 1.04626 577.299 1.04626C580.364 1.04626 583.327 2.09666 585.655 4.00801C587.983 5.91936 590.946 6.96976 594.01 6.96976C597.075 6.96976 600.038 5.91936 602.366 4.00801C604.694 2.09666 607.657 1.04626 610.721 1.04626C613.786 1.04626 616.749 2.09666 619.077 4.00801C621.405 5.91936 624.368 6.96976 627.432 6.96976C630.497 6.96976 633.46 5.91936 635.788 4.00801C638.116 2.09666 641.079 1.04626 644.143 1.04626C647.208 1.04626 650.171 2.09666 652.499 4.00801C654.827 5.91936 657.79 6.96976 660.854 6.96976C663.919 6.96976 666.882 5.91936 669.21 4.00801C671.539 2.09972 674.502 1.05132 677.565 1.05132C680.629 1.05132 683.591 2.09972 685.921 4.00801C688.249 5.91936 691.212 6.96976 694.276 6.96976C697.341 6.96976 700.304 5.91936 702.632 4.00801C704.96 2.09666 707.923 1.04626 710.987 1.04626C714.052 1.04626 717.015 2.09666 719.343 4.00801C721.671 5.91936 724.634 6.96976 727.698 6.96976C730.763 6.96976 733.726 5.91936 736.054 4.00801C738.382 2.09666 741.345 1.04626 744.409 1.04626C747.474 1.04626 750.437 2.09666 752.765 4.00801C755.093 5.91936 758.056 6.96976 761.12 6.96976C764.185 6.96976 767.148 5.91936 769.476 4.00801C771.804 2.09666 774.767 1.04626 777.831 1.04626C780.896 1.04626 783.859 2.09666 786.187 4.00801C788.515 5.91936 791.478 6.96976 794.542 6.96976C797.607 6.96976 800.57 5.91936 802.898 4.00801C805.226 2.09666 808.189 1.04626 811.253 1.04626C814.318 1.04626 817.281 2.09666 819.609 4.00801C821.937 5.91936 824.9 6.96976 827.964 6.96976C831.029 6.96976 833.992 5.91936 836.32 4.00801C838.648 2.09666 841.611 1.04626 844.675 1.04626C847.74 1.04626 850.703 2.09666 853.031 4.00801C855.359 5.91936 858.322 6.96976 861.386 6.96976C864.451 6.96976 867.414 5.91936 869.742 4.00801C872.07 2.09666 875.033 1.04626 878.097 1.04626C881.162 1.04626 884.125 2.09666 886.453 4.00801C888.781 5.91936 891.744 6.96976 894.808 6.96976C897.873 6.96976 900.836 5.91936 903.164 4.00801C905.493 2.09972 908.456 1.05132 911.519 1.05132C914.583 1.05132 917.545 2.09972 919.875 4.00801C922.196 5.90112 925.142 6.94061 928.189 6.94061C931.235 6.94061 934.182 5.90112 936.502 4.00801C938.832 2.09972 941.795 1.05132 944.858 1.05132C947.921 1.05132 950.884 2.09972 953.213 4.00801C955.541 5.91936 958.505 6.96976 961.569 6.96976C964.633 6.96976 967.596 5.91936 969.924 4.00801C972.252 2.09666 975.216 1.04626 978.28 1.04626C981.344 1.04626 984.307 2.09666 986.635 4.00801C988.963 5.91936 991.927 6.96976 994.991 6.96976C998.055 6.96976 1001.02 5.91936 1003.35 4.00801C1005.67 2.09666 1008.64 1.04626 1011.7 1.04626C1014.77 1.04626 1017.73 2.09666 1020.06 4.00801C1022.39 5.91936 1025.35 6.96976 1028.41 6.96976C1031.48 6.96976 1034.44 5.91936 1036.77 4.00801C1039.1 2.09666 1042.06 1.04626 1045.12 1.04626C1048.19 1.04626 1051.15 2.09666 1053.48 4.00801C1055.81 5.91936 1058.77 6.96976 1061.83 6.96976C1064.9 6.96976 1067.86 5.91936 1070.19 4.00801C1072.52 2.09666 1075.48 1.04626 1078.55 1.04626C1081.61 1.04626 1084.57 2.09666 1086.9 4.00801C1089.23 5.91936 1092.19 6.96976 1095.26 6.96976C1098.32 6.96976 1101.28 5.91936 1103.61 4.00801C1105.94 2.09666 1108.9 1.04626 1111.97 1.04626C1115.03 1.04626 1118 2.09666 1120.32 4.00801C1122.65 5.91936 1125.61 6.96976 1128.68 6.96976C1131.74 6.96976 1134.71 5.91936 1137.03 4.00801C1139.36 2.09666 1142.33 1.04626 1145.39 1.04626C1148.45 1.04626 1151.42 2.09666 1153.75 4.00801C1156.07 5.91936 1159.04 6.96976 1162.1 6.96976C1165.16 6.96976 1168.13 5.91936 1170.46 4.00801C1172.79 2.09972 1175.75 1.05132 1178.81 1.05132C1181.88 1.05132 1184.84 2.09972 1187.17 4.00801C1189.49 5.90112 1192.43 6.94061 1195.48 6.94061C1198.53 6.94061 1201.47 5.90112 1203.79 4.00801" stroke="currentColor" stroke-width="1.33" />
</svg>
