<svg viewBox="0 0 56 55" fill="none" xmlns="http://www.w3.org/2000/svg">
	<path d="M55.3919 27.6447C55.3919 30.3526 55.3919 33.0451 55.3919 35.753C55.3919 36.7279 55.0049 37.4242 54.1846 37.9658C45.9501 43.4436 37.7311 48.9368 29.4966 54.4301C28.5679 55.049 27.6547 55.049 26.726 54.4301C18.4915 48.9368 10.2415 43.4281 1.99159 37.9194C1.21767 37.4087 0.846191 36.7279 0.846191 35.8304C0.846191 30.3526 0.846191 24.8593 0.846191 19.3816C0.846191 18.4995 1.21767 17.8342 1.94515 17.339C10.1796 11.8612 18.4141 6.38344 26.6486 0.890184C27.7476 0.162908 28.4905 0.162908 29.5895 0.890184C37.824 6.38344 46.043 11.8612 54.2774 17.339C55.0049 17.8187 55.3919 18.4995 55.3919 19.3816C55.3919 22.1359 55.3919 24.8903 55.3919 27.6447ZM25.8747 6.80124C19.5595 11.0102 13.3063 15.1726 7.1304 19.2887C7.31614 19.4125 12.2383 22.6311 14.591 24.2559C15.303 24.751 15.7518 24.8593 16.5258 24.3178C19.4202 22.2907 22.3921 20.3564 25.3484 18.4067C25.7354 18.1436 25.9056 17.8496 25.8902 17.3545C25.8592 14.3835 25.8747 7.49756 25.8747 6.80124ZM30.3634 6.80124C30.3634 10.5614 30.3789 14.0276 30.3479 17.4937C30.3479 17.9734 30.5956 18.1901 30.8897 18.3912C34.0163 20.4957 37.0965 22.5692 40.2386 24.6427C40.5017 24.782 40.7958 24.782 41.0589 24.6272C42.777 23.5131 44.4797 22.368 46.1823 21.2384C47.111 20.6195 48.0397 19.985 49.0922 19.2732C42.808 15.0953 36.6786 11.0102 30.3634 6.80124ZM25.8592 48.4416C25.8592 48.1941 25.8902 41.0451 25.8592 37.5789C25.8592 37.3623 25.6425 37.0838 25.4413 36.96C22.2837 34.84 19.1261 32.7511 15.9685 30.6311C15.6435 30.4145 15.4423 30.4145 15.1172 30.6311C13.6158 31.6524 12.0835 32.6427 10.5666 33.664C9.46763 34.4068 8.36867 35.1495 7.14588 35.9851C13.4301 40.1476 19.6679 44.3101 25.8592 48.4416ZM49.0767 36.0006C48.9065 35.8613 43.6593 32.3797 41.1673 30.693C40.7958 30.43 40.5327 30.43 40.1922 30.6621C37.081 32.7511 33.9699 34.8246 30.8432 36.8981C30.4717 37.1457 30.3479 37.4397 30.3479 37.9039C30.3789 41.0915 30.3634 44.2946 30.3634 47.4823C30.3634 47.7298 30.3634 47.9774 30.3634 48.4726C36.6786 44.2482 42.8544 40.1321 49.0767 36.0006ZM36.6631 27.6292C36.3845 27.4435 31.1528 23.9773 28.6298 22.2752C28.2583 22.0276 28.0571 21.9812 27.6392 22.2597C25.1317 23.9619 19.9 27.3971 19.5286 27.6292C19.9155 27.8768 25.0388 31.281 27.5309 32.9677C27.9797 33.2772 28.2893 33.2462 28.7227 32.9522C30.1467 31.9619 31.6171 31.0025 33.0566 30.0276C34.2175 29.2385 35.4093 28.4648 36.6631 27.6292ZM11.5572 27.6292C9.4212 26.221 7.45545 24.9058 5.39683 23.5441C5.39683 26.3448 5.39683 28.9445 5.39683 31.7298C7.47092 30.3371 9.43667 29.0373 11.5572 27.6292ZM44.7273 27.5828C46.8014 28.9909 48.7672 30.3216 50.8413 31.7452C50.8413 29.0373 50.8413 26.4377 50.8413 23.8226C49.216 24.8129 46.7704 26.2984 44.7273 27.5828Z" fill="currentColor" />
</svg>
