<svg viewBox="0 0 48 48" fill="none" xmlns="http://www.w3.org/2000/svg">
	<path d="M10.8975 47.3435H1.07236V15.7007H10.8975V47.3435ZM5.98491 11.4011C2.85436 11.4011 0.301758 8.84068 0.301758 5.70054C0.301758 2.56041 2.85436 0 5.98491 0C9.11545 0 11.6681 2.56041 11.6681 5.70054C11.6681 8.84068 9.11545 11.4011 5.98491 11.4011ZM47.5971 47.3435H37.8202V31.981C37.8202 28.3095 37.772 23.5751 32.715 23.5751C27.6098 23.5751 26.8392 27.5848 26.8392 31.6912V47.3435H17.0622V15.7007H26.4539V20.0002H26.5984C27.8987 17.5364 31.1256 14.8794 35.8937 14.8794C45.8151 14.8794 47.6453 21.4495 47.6453 29.952L47.5971 47.3435Z" fill="currentColor" />
</svg>
