<?xml version="1.0" encoding="UTF-8" standalone="no"?>
<!DOCTYPE svg PUBLIC "-//W3C//DTD SVG 1.1//EN" "http://www.w3.org/Graphics/SVG/1.1/DTD/svg11.dtd">
<svg  viewBox="0 0 446 415">
    <g transform="matrix(1,0,0,1,0.00039731,-15.821)">
        <path d="M180.974,192.274L202.352,229.304C203.245,230.851 204.896,231.804 206.682,231.804C208.468,231.804 210.119,230.851 211.012,229.304L232.391,192.274C240.241,200.339 251.201,205.363 263.318,205.363C287.129,205.363 306.501,185.992 306.501,162.181C306.501,138.37 287.129,118.997 263.318,118.997C239.507,118.997 220.136,138.369 220.136,162.181C220.136,170.021 222.247,177.373 225.914,183.718L187.45,183.718C191.118,177.373 193.229,170.021 193.229,162.181C193.229,138.37 173.857,118.997 150.046,118.997C126.235,118.997 106.863,138.369 106.863,162.181C106.863,185.992 126.235,205.363 150.046,205.363C162.163,205.363 173.124,200.339 180.974,192.274ZM263.318,128.998C281.615,128.998 296.501,143.884 296.501,162.182C296.501,180.479 281.615,195.364 263.318,195.364C245.021,195.364 230.136,180.479 230.136,162.182C230.136,143.883 245.022,128.998 263.318,128.998ZM220.011,193.718L206.682,216.804L193.354,193.718L220.011,193.718ZM116.863,162.181C116.863,143.883 131.749,128.997 150.046,128.997C168.343,128.997 183.229,143.883 183.229,162.181C183.229,180.478 168.343,195.363 150.046,195.363C131.749,195.363 116.863,180.478 116.863,162.181Z" style="fill-rule:nonzero;"/>
        <path d="M167.224,162.181C167.224,152.709 159.518,145.003 150.046,145.003C140.574,145.003 132.869,152.709 132.869,162.181C132.869,171.652 140.575,179.357 150.046,179.357C159.518,179.357 167.224,171.652 167.224,162.181ZM142.869,162.181C142.869,158.223 146.089,155.003 150.046,155.003C154.004,155.003 157.224,158.223 157.224,162.181C157.224,166.138 154.004,169.357 150.046,169.357C146.088,169.357 142.869,166.138 142.869,162.181Z" style="fill-rule:nonzero;"/>
        <path d="M263.318,179.357C272.79,179.357 280.496,171.652 280.496,162.181C280.496,152.709 272.79,145.003 263.318,145.003C253.846,145.003 246.141,152.709 246.141,162.181C246.141,171.652 253.847,179.357 263.318,179.357ZM263.318,155.003C267.276,155.003 270.496,158.223 270.496,162.181C270.496,166.138 267.276,169.357 263.318,169.357C259.36,169.357 256.141,166.138 256.141,162.181C256.141,158.223 259.361,155.003 263.318,155.003Z" style="fill-rule:nonzero;"/>
        <path d="M233.276,318.398C249.114,318.398 262.264,306.681 264.521,291.46C279.742,289.202 291.459,276.054 291.459,260.216C291.459,257.454 289.22,255.216 286.459,255.216C283.698,255.216 281.459,257.454 281.459,260.216C281.459,272.12 271.772,281.806 259.865,281.806C247.96,281.806 238.274,272.121 238.274,260.216C238.274,257.454 236.035,255.216 233.274,255.216C230.513,255.216 228.274,257.454 228.274,260.216C228.274,272.12 218.587,281.806 206.68,281.806C194.775,281.806 185.089,272.121 185.089,260.216C185.089,257.454 182.85,255.216 180.089,255.216C177.328,255.216 175.089,257.454 175.089,260.216C175.089,272.12 165.402,281.806 153.495,281.806C141.59,281.806 131.904,272.121 131.904,260.216C131.904,257.454 129.665,255.216 126.904,255.216C124.143,255.216 121.904,257.454 121.904,260.216C121.904,276.054 133.621,289.204 148.842,291.46C151.1,306.681 164.25,318.398 180.089,318.398C191.243,318.398 201.059,312.583 206.682,303.83C212.306,312.583 222.122,318.398 233.276,318.398ZM233.275,277.239C237.955,284.523 245.54,289.765 254.384,291.32C252.302,301.065 243.633,308.398 233.276,308.398C222.918,308.398 214.248,301.064 212.166,291.32C221.01,289.765 228.595,284.523 233.275,277.239ZM180.09,308.398C169.733,308.398 161.063,301.064 158.981,291.32C167.825,289.765 175.41,284.523 180.09,277.239C184.77,284.523 192.355,289.766 201.2,291.32C199.117,301.065 190.447,308.398 180.09,308.398Z" style="fill-rule:nonzero;"/>
        <path d="M445.642,314.601C444.916,312.639 443.045,311.337 440.953,311.337L394.563,311.337C393.468,311.337 392.404,311.696 391.533,312.359L333.2,356.804L262.839,356.804C284.817,347.4 301.109,331.251 312.114,307.783C323.668,306.295 336.686,297.048 347.588,282.368C359.995,265.663 367.724,244.382 368.795,223.981C369.973,201.537 365.982,185.817 356.594,175.923C350.108,169.087 341.32,165.333 329.831,164.512L329.831,20.822C329.831,18.687 328.475,16.787 326.455,16.093C324.436,15.398 322.198,16.065 320.886,17.748L275.216,76.364L138.15,76.364L92.479,17.749C91.166,16.065 88.928,15.398 86.91,16.094C84.89,16.787 83.534,18.688 83.534,20.823L83.534,164.514C72.046,165.335 63.258,169.089 56.772,175.924C47.383,185.819 43.392,201.538 44.569,223.983C45.64,244.387 53.356,265.668 65.736,282.367C76.593,297.012 89.561,306.245 101.09,307.766C104.854,315.859 109.227,323.063 114.227,329.394C123.786,341.497 135.743,350.602 150.272,356.805L28.396,356.805C26.832,356.805 25.357,357.537 24.412,358.783L1.016,389.634C-0.132,391.147 -0.323,393.179 0.522,394.88C1.367,396.58 3.102,397.655 5,397.655L353.586,397.655L395.626,429.134C396.5,429.788 397.553,430.132 398.623,430.132C399.007,430.132 399.393,430.088 399.774,429.998C401.216,429.656 402.433,428.693 403.095,427.368L419.332,394.891C420.412,392.731 419.794,390.109 417.864,388.658L389.354,367.228L444.209,320.13C445.797,318.768 446.368,316.562 445.642,314.601ZM122.076,323.195C102.872,298.881 93.537,260.017 93.537,204.382C93.537,201.62 91.298,199.382 88.537,199.382C85.776,199.382 83.537,201.62 83.537,204.382C83.537,241.93 87.755,272.304 96.334,296.155C78.622,288.623 56.419,258.93 54.557,223.458C53.545,204.172 56.731,190.495 64.027,182.807C69.434,177.109 77.451,174.339 88.537,174.339C91.298,174.339 93.537,172.101 93.537,169.339C93.537,169.332 93.535,169.326 93.535,169.319L93.535,35.374L131.764,84.439C132.712,85.655 134.167,86.366 135.708,86.366L277.66,86.366C279.202,86.366 280.656,85.655 281.604,84.439L319.832,35.375L319.832,169.34C319.832,172.102 322.071,174.34 324.832,174.34C335.917,174.34 343.934,177.11 349.341,182.808C356.637,190.496 359.822,204.173 358.81,223.459C356.946,258.975 334.662,288.69 316.913,296.174C325.633,272.147 329.83,241.703 329.83,204.383C329.83,201.621 327.591,199.383 324.83,199.383C322.069,199.383 319.83,201.621 319.83,204.383C319.83,310.26 286.598,355.979 208.834,356.805L204.395,356.805C166.047,356.396 139.845,345.692 122.076,323.195ZM15.067,387.656L30.879,366.804L161.731,366.804L161.731,378.103C161.731,381.573 162.649,384.828 164.241,387.656L15.067,387.656ZM190.841,378.103C190.841,383.371 186.555,387.656 181.286,387.656C176.017,387.656 171.731,383.371 171.731,378.103L171.731,366.804L190.84,366.804L190.84,378.103L190.841,378.103ZM198.331,387.656C199.923,384.828 200.841,381.573 200.841,378.103L200.841,366.804L212.525,366.804L212.525,378.103C212.525,381.573 213.443,384.828 215.035,387.656L198.331,387.656ZM241.633,378.103C241.633,383.371 237.346,387.656 232.077,387.656C226.809,387.656 222.524,383.371 222.524,378.103L222.524,366.804L241.632,366.804L241.632,378.103L241.633,378.103ZM378.121,363.694C376.972,364.681 376.332,366.136 376.381,367.65C376.43,369.165 377.163,370.575 378.374,371.485L408.525,394.148L396.829,417.542L358.248,388.654C357.383,388.006 356.331,387.656 355.251,387.656L249.124,387.656C250.715,384.828 251.634,381.573 251.634,378.103L251.634,366.804L334.888,366.804C335.983,366.804 337.047,366.445 337.918,365.782L396.252,321.338L427.455,321.338L378.121,363.694Z" style="fill-rule:nonzero;"/>
    </g>
</svg>
